<svg width="37" height="34" viewBox="0 0 37 34" fill="none" xmlns="http://www.w3.org/2000/svg">
<path d="M32.429 0H3.89148C1.70252 0 0 1.62145 0 3.53771V29.4809C0 31.4709 1.70252 33.0186 3.89148 33.0186H14.9984V21.8159H9.89085V16.5093H14.9984V12.5294C14.9984 7.95985 17.9981 5.38027 22.5382 5.38027C24.8082 5.38027 27.0782 5.74878 27.0782 5.74878V10.2446H24.565C22.0517 10.2446 21.241 11.645 21.241 13.119V16.5093H26.835L25.9432 21.8159H21.241V33.0186H32.429C34.5369 33.0186 36.3205 31.4709 36.3205 29.4809V3.53771C36.3205 1.62145 34.5369 0 32.429 0Z" fill="#F1F1F1"/>
</svg>
