<svg width="25" height="24" viewBox="0 0 25 24" fill="none" xmlns="http://www.w3.org/2000/svg">
<path d="M23.7141 0.000427246H1.63407C1.10307 0.000427246 0.674072 0.429427 0.674072 0.960427V23.0404C0.674072 23.5714 1.10307 24.0004 1.63407 24.0004H23.7141C24.2451 24.0004 24.6741 23.5714 24.6741 23.0404V0.960427C24.6741 0.429427 24.2451 0.000427246 23.7141 0.000427246ZM20.9421 7.00543H19.0251C17.5221 7.00543 17.2311 7.71943 17.2311 8.76943V11.0824H20.8191L20.3511 14.7034H17.2311V24.0004H13.4901V14.7064H10.3611V11.0824H13.4901V8.41243C13.4901 5.31343 15.3831 3.62443 18.1491 3.62443C19.4751 3.62443 20.6121 3.72343 20.9451 3.76843V7.00543H20.9421Z" fill="black"/>
</svg>
