<svg width="34" height="34" viewBox="0 0 34 34" fill="none" xmlns="http://www.w3.org/2000/svg">
<path d="M17.3884 7.9967C12.6714 7.9967 8.91263 11.8292 8.91263 16.4725C8.91263 21.1894 12.6714 24.9482 17.3884 24.9482C22.0316 24.9482 25.8642 21.1894 25.8642 16.4725C25.8642 11.8292 22.0316 7.9967 17.3884 7.9967ZM17.3884 22.0001C14.3666 22.0001 11.8607 19.568 11.8607 16.4725C11.8607 13.4507 14.2929 11.0185 17.3884 11.0185C20.4102 11.0185 22.8424 13.4507 22.8424 16.4725C22.8424 19.568 20.4102 22.0001 17.3884 22.0001ZM28.1489 7.70189C28.1489 6.59636 27.2645 5.71193 26.159 5.71193C25.0534 5.71193 24.169 6.59636 24.169 7.70189C24.169 8.80743 25.0534 9.69185 26.159 9.69185C27.2645 9.69185 28.1489 8.80743 28.1489 7.70189ZM33.7503 9.69185C33.6029 7.03857 33.0133 4.6801 31.097 2.76384C29.1808 0.847577 26.8223 0.257958 24.169 0.110553C21.442 -0.0368512 13.2611 -0.0368512 10.5341 0.110553C7.88079 0.257958 5.59602 0.847577 3.60606 2.76384C1.6898 4.6801 1.10018 7.03857 0.952778 9.69185C0.805373 12.4188 0.805373 20.5998 0.952778 23.3268C1.10018 25.9801 1.6898 28.2648 3.60606 30.2548C5.59602 32.1711 7.88079 32.7607 10.5341 32.9081C13.2611 33.0555 21.442 33.0555 24.169 32.9081C26.8223 32.7607 29.1808 32.1711 31.097 30.2548C33.0133 28.2648 33.6029 25.9801 33.7503 23.3268C33.8977 20.5998 33.8977 12.4188 33.7503 9.69185ZM30.2126 26.2012C29.6967 27.6752 28.5174 28.7808 27.1171 29.3704C24.906 30.2548 19.7469 30.0337 17.3884 30.0337C14.9562 30.0337 9.79705 30.2548 7.65969 29.3704C6.18564 28.7808 5.08011 27.6752 4.49049 26.2012C3.60606 24.0638 3.82717 18.9046 3.82717 16.4725C3.82717 14.114 3.60606 8.95483 4.49049 6.74376C5.08011 5.34342 6.18564 4.23788 7.65969 3.64826C9.79705 2.76384 14.9562 2.98494 17.3884 2.98494C19.7469 2.98494 24.906 2.76384 27.1171 3.64826C28.5174 4.16418 29.623 5.34342 30.2126 6.74376C31.097 8.95483 30.8759 14.114 30.8759 16.4725C30.8759 18.9046 31.097 24.0638 30.2126 26.2012Z" fill="#F1F1F1"/>
</svg>
