<svg width="25" height="24" viewBox="0 0 25 24" fill="none" xmlns="http://www.w3.org/2000/svg">
<path d="M5.69893 24.0009H0.723043V7.97686H5.69893V24.0009ZM3.20799 5.79106C1.61708 5.79106 0.326172 4.47273 0.326172 2.88182C0.326172 2.11751 0.629791 1.38451 1.17024 0.844065C1.71068 0.303619 2.44368 0 3.20799 0C3.97229 0 4.7053 0.303619 5.24574 0.844065C5.78619 1.38451 6.08981 2.11751 6.08981 2.88182C6.08981 4.47273 4.7989 5.79106 3.20799 5.79106ZM24.3219 24.0009H19.3571V16.2006C19.3571 14.3414 19.3194 11.9576 16.7702 11.9576C14.1832 11.9576 13.7864 13.9771 13.7864 16.0669V24.0009H8.81562V7.97686H13.5875V10.1626H13.6569C14.3212 8.90346 15.9439 7.57484 18.3645 7.57484C23.4004 7.57484 24.3262 10.8912 24.3262 15.1985V24.0009H24.3219Z" fill="black"/>
</svg>
