<svg width="26" height="34" viewBox="0 0 26 34" fill="none" xmlns="http://www.w3.org/2000/svg">
<path d="M11.4068 32.3422C11.9867 33.2441 13.3396 33.2441 13.9195 32.3422C23.3258 18.8126 25.0653 17.3952 25.0653 12.3699C25.0653 5.54069 19.5246 0 12.6954 0C5.80173 0 0.32547 5.54069 0.32547 12.3699C0.32547 17.3952 2.00056 18.8126 11.4068 32.3422ZM12.6954 17.524C9.79618 17.524 7.54125 15.2691 7.54125 12.3699C7.54125 9.53514 9.79618 7.21578 12.6954 7.21578C15.5301 7.21578 17.8495 9.53514 17.8495 12.3699C17.8495 15.2691 15.5301 17.524 12.6954 17.524Z" fill="#F1F1F1"/>
</svg>
