<svg width="37" height="30" viewBox="0 0 37 30" fill="none" xmlns="http://www.w3.org/2000/svg">
<path d="M33.2501 7.57666C34.6822 6.50256 35.9711 5.21364 36.9736 3.7099C35.6847 4.28275 34.181 4.71239 32.6772 4.85561C34.2526 3.92472 35.3983 2.49259 35.9711 0.702419C34.539 1.5617 32.8921 2.20616 31.2451 2.56419C29.813 1.06045 27.8796 0.201172 25.7314 0.201172C21.5782 0.201172 18.2127 3.56669 18.2127 7.71987C18.2127 8.29273 18.2843 8.86558 18.4275 9.43843C12.1977 9.0804 6.61241 6.07292 2.88886 1.5617C2.2444 2.6358 1.88637 3.92472 1.88637 5.35685C1.88637 7.93469 3.17529 10.2261 5.25188 11.5866C4.03457 11.515 2.81726 11.2286 1.81476 10.6557V10.7274C1.81476 14.3793 4.3926 17.3868 7.82972 18.1028C7.25687 18.2461 6.5408 18.3893 5.89634 18.3893C5.3951 18.3893 4.96546 18.3177 4.46421 18.2461C5.3951 21.2535 8.18776 23.4017 11.4817 23.4733C8.90382 25.4783 5.68152 26.6956 2.1728 26.6956C1.52834 26.6956 0.955483 26.624 0.382629 26.5524C3.67654 28.7006 7.6149 29.9179 11.9113 29.9179C25.7314 29.9179 33.2501 18.5325 33.2501 8.57915C33.2501 8.22112 33.2501 7.93469 33.2501 7.57666Z" fill="#F1F1F1"/>
</svg>
