<svg width="21" height="16" viewBox="0 0 21 16" fill="none" xmlns="http://www.w3.org/2000/svg">
<path d="M18.3071 3.99741C18.3201 4.17241 18.3201 4.34641 18.3201 4.52041C18.3201 9.84541 14.2671 15.9814 6.86007 15.9814C4.57807 15.9814 2.45807 15.3204 0.674072 14.1724C0.998072 14.2094 1.31007 14.2224 1.64707 14.2224C3.46006 14.2268 5.22172 13.6205 6.64807 12.5014C5.80749 12.4862 4.99265 12.2089 4.31731 11.7081C3.64197 11.2074 3.13986 10.5083 2.88107 9.70841C3.13007 9.74541 3.38007 9.77041 3.64207 9.77041C4.00307 9.77041 4.36607 9.72041 4.70307 9.63341C3.79083 9.44922 2.97055 8.95476 2.38169 8.23409C1.79284 7.51343 1.47177 6.61106 1.47307 5.68041V5.63041C2.01007 5.92941 2.63307 6.11641 3.29307 6.14141C2.74016 5.77399 2.28679 5.27543 1.97341 4.6902C1.66003 4.10497 1.49639 3.45126 1.49707 2.78741C1.49707 2.03941 1.69607 1.35341 2.04507 0.75541C3.05721 2.00043 4.31958 3.01897 5.75041 3.74507C7.18124 4.47116 8.74863 4.88862 10.3511 4.97041C10.2891 4.67041 10.2511 4.35941 10.2511 4.04741C10.2508 3.51837 10.3548 2.99447 10.5571 2.50565C10.7595 2.01683 11.0562 1.57268 11.4303 1.1986C11.8043 0.824511 12.2485 0.52782 12.7373 0.325488C13.2261 0.123155 13.75 0.0191468 14.2791 0.0194097C15.4391 0.0194097 16.4861 0.505409 17.2221 1.29141C18.1238 1.11703 18.9886 0.787832 19.7781 0.318409C19.4775 1.24923 18.8478 2.03851 18.0071 2.53841C18.8069 2.44719 19.5885 2.23686 20.3261 1.91441C19.7752 2.71751 19.0926 3.42175 18.3071 3.99741Z" fill="black"/>
</svg>
