<svg width="45" height="31" viewBox="0 0 45 31" fill="none" xmlns="http://www.w3.org/2000/svg">
<path d="M43.0972 4.89547C42.6157 2.96938 41.0909 1.44457 39.245 0.963043C35.7941 0 22.151 0 22.151 0C22.151 0 8.42762 0 4.97672 0.963043C3.13088 1.44457 1.60606 2.96938 1.12454 4.89547C0.161499 8.26612 0.161499 15.4889 0.161499 15.4889C0.161499 15.4889 0.161499 22.6315 1.12454 26.0824C1.60606 28.0085 3.13088 29.4531 4.97672 29.9346C8.42762 30.8174 22.151 30.8174 22.151 30.8174C22.151 30.8174 35.7941 30.8174 39.245 29.9346C41.0909 29.4531 42.6157 28.0085 43.0972 26.0824C44.0602 22.6315 44.0602 15.4889 44.0602 15.4889C44.0602 15.4889 44.0602 8.26612 43.0972 4.89547ZM17.6568 21.9895V8.98841L29.0528 15.4889L17.6568 21.9895Z" fill="#F1F1F1"/>
</svg>
